<?xml version="1.0" standalone="no"?>
<!DOCTYPE svg PUBLIC "-//W3C//DTD SVG 20010904//EN"
 "http://www.w3.org/TR/2001/REC-SVG-20010904/DTD/svg10.dtd">
<svg version="1.0" xmlns="http://www.w3.org/2000/svg"
 width="666.000000pt" height="666.000000pt" viewBox="0 0 666.000000 666.000000"
 preserveAspectRatio="xMidYMid meet">
<metadata>
Created by potrace 1.14, written by Peter Selinger 2001-2017
</metadata>
<g transform="translate(0.000000,666.000000) scale(0.100000,-0.100000)"
fill="#000000" stroke="none">
<path d="M3097 6364 c-3 -4 -1 -16 5 -28 6 -11 11 -22 10 -23 -1 -2 -2 -10 -2
-19 0 -9 5 -12 13 -8 7 5 6 0 -3 -11 -9 -11 -10 -16 -2 -11 8 5 12 -2 12 -26
0 -26 3 -30 11 -18 9 12 10 11 6 -7 -3 -13 -1 -23 4 -23 5 0 9 -5 9 -11 0 -5
-4 -8 -9 -5 -12 8 -8 -18 5 -35 20 -26 28 -42 16 -35 -16 9 -2 -65 15 -82 15
-16 17 -26 3 -17 -13 8 -13 -1 0 -25 7 -14 6 -20 -7 -24 -14 -6 -14 -8 2 -26
10 -11 13 -20 7 -20 -6 0 -9 -7 -6 -15 4 -8 11 -12 18 -8 6 4 4 -2 -4 -12 -8
-10 -10 -16 -4 -12 7 4 14 0 18 -8 3 -10 -1 -15 -12 -16 -14 0 -14 -2 3 -9 14
-6 15 -9 5 -10 -12 0 -11 -4 4 -15 14 -11 16 -15 5 -15 -8 0 -14 -10 -14 -24
0 -13 3 -22 7 -20 4 2 9 0 13 -6 3 -5 -1 -10 -10 -10 -13 0 -14 -4 -5 -20 9
-16 8 -20 -5 -20 -9 0 -13 -5 -10 -10 4 -6 12 -7 18 -4 7 4 2 -3 -11 -15 -18
-18 -20 -26 -12 -41 9 -16 7 -20 -7 -21 -16 0 -16 -1 2 -9 11 -5 14 -9 7 -9
-7 -1 -10 -6 -7 -11 4 -6 12 -8 18 -4 7 3 5 0 -3 -8 -17 -14 -15 -48 2 -48 7
0 6 -5 -2 -15 -6 -8 -8 -20 -4 -27 6 -11 5 -11 -8 0 -14 11 -16 8 -15 -33 1
-25 -2 -45 -6 -45 -5 0 -5 -5 -1 -11 3 -6 0 -15 -7 -20 -11 -7 -11 -9 -1 -9 7
0 10 -5 7 -10 -4 -6 -10 -8 -14 -6 -4 3 -8 -1 -8 -8 0 -9 7 -12 16 -9 11 4 10
1 -3 -9 -12 -9 -16 -20 -11 -28 5 -9 4 -11 -3 -6 -8 5 -12 -4 -12 -29 0 -26
-3 -34 -12 -29 -9 5 -9 2 1 -9 12 -15 11 -17 -4 -17 -15 0 -16 -2 -4 -17 12
-14 12 -16 0 -8 -11 6 -13 4 -8 -9 4 -9 3 -14 -2 -11 -5 3 -12 1 -15 -4 -4 -5
2 -12 11 -14 17 -4 17 -5 1 -6 -11 -1 -15 -6 -12 -16 4 -8 1 -15 -6 -15 -9 0
-9 -4 -2 -13 8 -9 5 -19 -10 -37 -11 -14 -16 -19 -12 -11 5 10 3 12 -5 7 -9
-6 -9 -11 -1 -21 8 -9 6 -14 -6 -19 -9 -4 -14 -12 -10 -22 3 -8 2 -12 -4 -9
-6 3 -10 1 -10 -5 0 -6 -4 -9 -9 -6 -5 4 -7 -4 -3 -16 5 -19 3 -21 -9 -11 -13
10 -15 8 -14 -15 1 -16 -7 -35 -19 -45 -12 -10 -15 -16 -8 -12 11 6 11 3 1
-13 -7 -12 -15 -19 -17 -17 -5 5 -44 -33 -58 -55 -5 -9 2 -4 14 10 21 22 23
23 13 3 -6 -12 -27 -34 -46 -49 -19 -14 -35 -35 -35 -45 0 -12 -5 -16 -14 -13
-8 3 -17 0 -22 -7 -4 -8 -3 -10 4 -5 22 14 12 -12 -10 -26 -20 -13 -21 -17 -9
-32 12 -14 12 -16 -4 -10 -13 5 -16 4 -11 -5 5 -7 2 -10 -5 -9 -7 2 -13 -2
-14 -9 0 -6 -4 -15 -9 -20 -5 -4 -6 -3 -2 4 3 6 2 14 -2 17 -5 3 -9 -7 -8 -22
0 -16 -4 -26 -12 -24 -7 1 -12 -3 -12 -9 0 -5 -4 -8 -9 -4 -6 3 -6 -7 -1 -26
8 -26 7 -29 -5 -19 -12 10 -13 8 -10 -10 4 -19 2 -20 -12 -8 -9 7 -14 8 -10 2
4 -7 0 -15 -9 -18 -8 -3 -12 -10 -9 -16 3 -5 1 -10 -6 -10 -8 0 -8 -4 1 -15
11 -13 10 -14 -5 -9 -15 6 -17 3 -13 -18 3 -18 1 -25 -8 -21 -6 2 -15 -1 -20
-8 -4 -8 -3 -10 4 -5 16 10 15 -2 -2 -19 -7 -8 -17 -11 -22 -7 -5 4 -2 -2 6
-12 13 -17 13 -18 1 -11 -11 6 -13 4 -8 -9 5 -11 3 -15 -5 -10 -8 5 -9 2 -5
-10 5 -14 3 -15 -13 -6 -17 9 -18 7 -10 -19 7 -26 6 -29 -12 -26 -15 3 -17 1
-9 -9 14 -16 4 -27 -17 -18 -15 5 -15 4 1 -12 20 -20 22 -27 6 -24 -6 2 -14
-3 -17 -11 -2 -8 0 -11 6 -7 6 4 8 -2 5 -14 -3 -11 -9 -23 -14 -26 -14 -8 -11
-26 4 -19 6 4 1 -3 -13 -15 -14 -12 -20 -19 -13 -16 6 4 14 2 18 -4 3 -5 2
-10 -4 -10 -5 0 -8 -9 -6 -20 2 -11 -1 -23 -7 -26 -7 -5 -8 -2 -3 6 5 9 4 11
-4 6 -9 -6 -8 -13 3 -31 12 -17 13 -26 4 -31 -6 -4 -8 -3 -4 4 3 6 2 13 -4 17
-9 5 -12 -1 -9 -21 0 -4 -5 -11 -13 -15 -11 -7 -10 -9 1 -9 11 0 9 -4 -5 -15
-10 -9 -13 -14 -5 -13 7 2 16 -3 19 -11 3 -8 0 -11 -7 -7 -6 4 -11 4 -12 -1 0
-4 -2 -17 -5 -28 -5 -27 -6 -52 -2 -97 2 -21 -1 -38 -6 -38 -4 0 -3 -7 4 -15
10 -12 9 -16 -4 -21 -9 -3 -16 -10 -16 -16 0 -5 6 -6 13 -3 6 4 5 1 -3 -7 -17
-15 -15 -72 2 -62 7 4 8 2 4 -4 -4 -7 -15 -12 -24 -13 -14 0 -13 -2 3 -9 11
-5 15 -9 8 -9 -6 -1 -9 -10 -5 -23 4 -16 2 -19 -9 -13 -8 5 -5 -2 6 -14 19
-22 19 -23 0 -37 -19 -14 -19 -14 1 -15 10 0 13 -3 7 -6 -7 -2 -13 -12 -14
-21 0 -11 -2 -13 -6 -4 -3 8 -9 9 -16 4 -8 -6 -18 -2 -29 10 -12 12 -14 18 -5
18 8 0 7 3 -3 9 -8 6 -19 7 -25 3 -5 -3 -4 2 4 11 11 13 11 17 1 17 -8 0 -10
3 -7 6 12 13 -14 46 -31 40 -15 -5 -15 -4 1 8 18 14 13 51 -6 39 -6 -4 -8 0
-4 9 3 9 0 24 -8 34 -10 15 -11 22 -2 33 10 12 9 14 -5 8 -10 -3 -20 -1 -24 5
-4 7 -3 8 4 4 13 -8 14 -5 16 34 1 14 6 32 11 40 8 13 7 13 -10 0 -16 -14 -17
-13 -11 8 5 14 3 22 -4 22 -6 0 -8 5 -4 11 3 6 0 15 -7 20 -12 7 -11 9 1 9 13
0 13 1 0 10 -12 8 -12 10 5 11 17 1 16 2 -5 9 -19 6 -20 8 -6 9 15 1 16 4 6
16 -10 12 -10 15 0 15 9 0 9 4 -1 17 -8 9 -9 14 -3 10 7 -4 14 2 17 13 3 11 1
18 -4 14 -5 -3 -9 -1 -9 5 0 5 6 12 13 14 9 4 9 6 0 6 -7 1 -10 8 -6 18 4 10
2 14 -4 10 -6 -4 -13 0 -16 8 -4 10 -1 12 11 8 15 -6 16 -5 2 12 -8 10 -10 16
-3 12 8 -5 11 3 9 28 -3 28 -1 33 10 24 10 -8 12 -5 8 16 -3 17 -1 24 6 20 13
-8 9 17 -5 27 -6 4 -2 8 8 8 15 0 16 3 6 23 -11 20 -11 21 5 8 14 -12 16 -12
10 4 -6 14 -4 16 7 10 12 -8 12 -6 0 8 -12 16 -12 17 5 10 16 -6 17 -4 6 9
-10 13 -9 16 8 21 13 3 18 10 14 21 -4 9 -1 16 6 16 9 0 9 4 -1 16 -12 14 -14
14 -20 -3 -3 -10 -1 -25 5 -33 10 -13 9 -13 -6 -1 -10 7 -15 17 -12 22 3 5 0
9 -5 9 -6 0 -11 -4 -11 -10 0 -5 -8 -10 -17 -10 -15 0 -16 -2 -3 -10 14 -9 7
-15 -14 -11 -5 1 -6 -6 -2 -15 6 -14 4 -15 -9 -4 -13 11 -16 11 -13 -1 2 -8
-3 -13 -10 -11 -6 1 -11 -1 -11 -5 3 -21 -2 -33 -12 -28 -6 4 -9 0 -7 -11 2
-11 -2 -18 -9 -16 -7 1 -13 -3 -13 -9 0 -5 -6 -7 -12 -3 -8 5 -8 2 1 -10 11
-13 11 -16 1 -14 -7 2 -15 -3 -18 -11 -3 -10 0 -11 9 -5 12 6 12 5 0 -10 -8
-9 -21 -14 -29 -11 -11 4 -12 2 -5 -7 8 -9 4 -19 -12 -35 -13 -12 -27 -19 -31
-15 -5 4 -2 -1 5 -11 12 -15 12 -17 -3 -11 -12 5 -15 2 -9 -12 4 -10 2 -15 -3
-11 -5 3 -17 -8 -27 -24 -10 -18 -12 -28 -4 -24 6 4 5 1 -4 -7 -9 -7 -14 -19
-12 -26 3 -6 -6 -16 -19 -21 -12 -6 -18 -10 -12 -10 6 -1 11 -8 11 -16 0 -8
-4 -12 -9 -9 -4 3 -8 -2 -8 -10 0 -9 -5 -16 -11 -16 -8 0 -7 -5 1 -15 11 -13
10 -14 -5 -9 -13 5 -16 4 -11 -5 4 -6 2 -19 -6 -28 -11 -14 -11 -16 2 -9 12 6
11 4 -1 -6 -9 -7 -14 -19 -11 -27 3 -9 0 -11 -8 -6 -10 6 -12 4 -7 -8 4 -10 1
-17 -6 -17 -8 0 -6 -4 3 -10 11 -7 11 -10 2 -10 -7 0 -10 -4 -7 -10 3 -5 0
-10 -7 -10 -10 0 -13 -11 -10 -37 2 -29 1 -34 -7 -23 -14 19 -14 5 -1 -20 9
-16 8 -18 -6 -13 -12 4 -15 3 -10 -6 4 -6 2 -19 -5 -28 -12 -14 -13 -55 -4
-105 2 -9 -1 -17 -8 -15 -6 1 -12 -8 -13 -19 0 -12 -4 -26 -8 -33 -4 -6 -1
-11 6 -12 7 0 4 -4 -7 -9 l-20 -9 20 0 c17 -1 17 -3 5 -11 -13 -9 -13 -10 0
-10 13 0 13 -1 0 -10 -13 -9 -13 -10 0 -10 12 0 13 -2 1 -9 -8 -5 -10 -14 -6
-21 5 -9 4 -11 -3 -6 -16 10 -15 -7 1 -23 10 -10 9 -11 -3 -6 -11 4 -16 -1
-16 -15 0 -11 5 -20 11 -20 5 0 3 -5 -5 -10 -9 -6 -10 -10 -3 -10 8 0 9 -9 3
-30 -5 -19 -5 -28 1 -25 5 4 9 1 9 -4 0 -6 -6 -11 -12 -12 -7 0 -2 -5 12 -11
14 -6 20 -12 13 -15 -8 -3 -9 -12 -4 -26 5 -12 7 -33 4 -46 -2 -13 4 -35 12
-48 14 -21 14 -23 -2 -24 -16 0 -15 -2 2 -9 11 -5 15 -9 9 -9 -8 -1 -10 -12
-5 -33 4 -18 6 -43 5 -55 -1 -14 3 -20 13 -16 11 4 11 0 3 -21 -7 -19 -6 -25
3 -23 7 1 11 -6 9 -15 -2 -10 2 -18 8 -18 6 0 8 -4 5 -10 -3 -6 -2 -10 2 -10
5 0 10 -17 11 -37 2 -20 11 -43 20 -50 12 -10 12 -12 2 -8 -8 4 -7 0 4 -9 11
-9 16 -22 12 -31 -3 -9 -2 -13 3 -10 11 6 25 -31 17 -44 -4 -5 0 -16 8 -24 8
-8 12 -17 9 -21 -4 -3 -1 -6 6 -6 7 0 9 -5 5 -12 -4 -6 -3 -8 4 -4 6 3 13 2
17 -4 4 -6 10 -8 15 -5 4 3 6 -10 3 -27 -3 -18 -10 -36 -16 -40 -9 -6 -8 -8 1
-8 7 0 11 -4 7 -9 -3 -6 -15 -8 -26 -6 -16 3 -18 1 -10 -8 7 -10 3 -13 -17
-15 -15 -1 -28 -7 -30 -12 -2 -6 -8 -10 -14 -10 -15 0 -40 -29 -33 -39 3 -6
-4 -8 -15 -6 -11 2 -20 0 -20 -6 0 -5 -12 -9 -26 -9 -17 0 -23 -4 -18 -13 5
-8 2 -7 -9 2 -16 12 -17 12 -11 -5 5 -18 5 -18 -6 -1 -10 15 -14 16 -28 5 -12
-10 -14 -10 -8 -1 5 9 1 13 -12 13 -15 0 -19 5 -15 19 4 15 0 20 -16 18 -12
-1 -21 -6 -21 -12 0 -5 -5 -3 -10 5 -9 13 -10 13 -10 0 0 -13 -1 -13 -10 0 -9
13 -10 13 -10 0 0 -13 -1 -13 -10 0 -5 8 -10 10 -10 4 0 -6 -7 -11 -15 -11 -9
0 -14 6 -11 13 3 8 0 11 -9 8 -8 -3 -21 1 -30 10 -9 8 -22 13 -30 10 -9 -4
-15 0 -15 7 0 11 -3 11 -10 -1 -6 -10 -10 -11 -10 -2 0 6 -7 12 -15 12 -8 0
-15 4 -15 8 0 4 -12 9 -26 10 -32 2 -56 20 -48 34 4 6 -3 5 -15 -1 -14 -8 -21
-8 -21 -1 0 5 -9 10 -19 10 -11 0 -22 6 -24 13 -4 9 -6 9 -6 0 -1 -7 -6 -13
-12 -13 -5 0 -7 6 -3 13 5 7 0 6 -11 -3 -11 -9 -16 -10 -11 -2 5 8 0 12 -13
12 -12 0 -21 -6 -21 -12 0 -9 -4 -8 -10 2 -6 10 -10 11 -10 3 0 -7 -3 -12 -8
-12 -19 3 -25 -2 -12 -11 11 -8 8 -9 -13 -6 -15 3 -27 0 -27 -6 0 -6 -8 -17
-18 -25 -9 -8 -12 -12 -5 -9 7 4 11 -1 10 -14 -1 -13 -6 -19 -16 -15 -11 4
-11 2 -3 -8 7 -8 9 -17 5 -20 -10 -10 -10 -70 -1 -89 6 -13 5 -18 -7 -18 -9 0
-13 -5 -10 -10 4 -6 10 -8 15 -5 5 3 12 0 16 -6 4 -7 3 -9 -3 -6 -6 4 -13 -2
-16 -13 -4 -14 0 -20 11 -20 15 0 15 -2 2 -10 -13 -9 -8 -14 11 -12 4 1 5 -8
2 -18 -4 -15 0 -20 16 -20 12 0 20 -4 17 -9 -3 -5 2 -12 12 -16 29 -13 42 -14
35 -2 -4 7 1 6 10 -2 9 -7 17 -10 17 -5 0 5 5 2 10 -6 9 -13 10 -13 10 0 0 8
6 4 13 -10 8 -16 21 -25 35 -24 13 1 22 -4 22 -12 0 -8 5 -14 11 -14 5 0 7 5
3 11 -3 6 7 4 24 -5 16 -8 32 -12 36 -9 3 4 6 0 6 -8 0 -11 2 -11 10 1 8 13
10 13 10 -1 0 -9 7 -20 16 -23 15 -6 15 -4 3 11 -13 17 -13 17 7 1 11 -10 32
-19 46 -20 19 -2 25 -7 23 -20 -2 -10 0 -16 6 -13 5 4 12 -1 15 -9 3 -9 10
-14 14 -11 5 3 7 -6 5 -20 -1 -14 2 -25 7 -25 5 0 6 -5 3 -10 -4 -6 -12 -7
-18 -3 -7 4 -6 -1 2 -10 12 -15 12 -17 -4 -11 -12 5 -16 4 -11 -4 4 -7 -1 -10
-13 -7 -15 3 -18 0 -14 -12 4 -11 3 -14 -6 -9 -6 4 -17 3 -24 -2 -7 -5 -20 -8
-29 -7 -11 2 -18 -3 -18 -11 0 -9 -5 -12 -10 -9 -6 4 -8 12 -4 18 3 7 -1 4 -9
-5 -16 -20 -32 -25 -21 -6 4 7 3 8 -4 4 -7 -4 -12 -15 -12 -24 0 -13 -2 -14
-9 -3 -7 11 -9 11 -14 0 -4 -11 -6 -11 -6 -1 -1 8 -8 6 -23 -7 -16 -16 -25
-18 -35 -10 -9 9 -14 7 -19 -5 -5 -13 -9 -14 -20 -5 -12 10 -13 9 -8 -5 6 -15
-8 -20 -42 -15 -4 0 -10 -3 -13 -8 -15 -21 -48 -32 -60 -20 -9 9 -11 8 -6 -5
5 -12 1 -20 -9 -24 -9 -3 -16 -10 -16 -16 0 -5 4 -7 9 -3 5 3 13 0 17 -6 4 -7
3 -9 -3 -6 -16 10 -34 -18 -26 -38 5 -15 3 -17 -12 -11 -18 7 -18 6 0 -14 14
-15 15 -20 4 -20 -10 -1 -8 -5 5 -15 18 -14 18 -15 2 -15 -11 0 -14 -4 -10
-12 4 -7 8 -50 8 -97 1 -65 -3 -89 -14 -99 -8 -8 -10 -11 -3 -8 6 4 14 2 18
-4 3 -5 0 -10 -7 -10 -9 0 -9 -3 2 -10 13 -9 13 -10 0 -11 -10 0 -8 -3 5 -9
l20 -9 -20 0 c-17 -1 -17 -3 -5 -11 13 -9 13 -10 0 -10 -13 0 -13 -1 0 -10 11
-7 11 -10 2 -10 -7 0 -10 -5 -7 -10 4 -6 10 -8 15 -5 4 3 7 -3 5 -12 -1 -10 3
-24 9 -32 8 -11 8 -13 -1 -7 -9 5 -11 2 -7 -8 3 -9 13 -16 21 -16 9 0 13 -6 9
-15 -3 -8 -2 -14 2 -13 18 5 53 -15 48 -27 -4 -11 0 -12 19 -5 14 5 24 6 24 2
-3 -19 2 -25 11 -12 6 10 10 11 10 3 0 -7 5 -13 11 -13 5 0 7 5 3 11 -5 8 -1
8 14 0 15 -8 23 -8 27 0 4 6 13 8 21 5 9 -3 14 1 14 12 0 10 3 13 8 7 4 -6 13
-10 20 -9 6 1 17 2 22 3 6 0 10 6 10 12 0 8 -6 7 -17 -2 -16 -11 -16 -11 -5 1
7 8 25 15 39 15 15 1 28 7 31 15 3 13 2 13 -8 0 -10 -13 -11 -13 -7 0 2 8 12
14 21 14 9 -1 16 4 16 11 0 7 7 18 15 25 11 9 12 17 4 31 -8 15 -6 19 8 20 15
0 15 2 3 7 -8 4 -16 13 -18 20 -1 8 2 11 9 6 7 -4 10 -2 7 7 -3 8 -12 13 -19
11 -9 -1 -8 2 3 11 14 11 15 16 5 27 -10 10 -9 11 2 5 11 -6 13 -4 7 10 -5 15
-4 16 8 6 11 -9 16 -9 22 0 4 8 3 9 -4 5 -7 -4 -12 -2 -12 3 0 14 6 14 31 0
11 -6 18 -17 15 -24 -3 -8 8 -22 27 -34 18 -11 27 -21 21 -21 -5 0 -16 6 -23
12 -8 8 -7 1 3 -20 10 -18 24 -36 32 -39 12 -4 12 -8 2 -21 -11 -13 -10 -14 2
-10 14 4 50 -20 50 -35 0 -4 11 -19 24 -32 18 -18 26 -21 36 -12 10 10 10 7 0
-12 -8 -15 -8 -21 -1 -17 6 4 14 0 17 -8 3 -9 10 -13 15 -10 5 3 9 -2 9 -10 0
-9 5 -16 11 -16 5 0 7 -4 4 -10 -4 -6 1 -7 11 -3 14 5 16 3 11 -12 -6 -15 -5
-16 8 -5 10 8 15 9 15 1 0 -6 6 -11 14 -11 8 0 21 -8 28 -17 7 -10 22 -25 33
-33 19 -14 19 -14 5 6 -12 15 -10 15 6 -2 12 -13 25 -20 28 -17 3 4 6 -1 6
-10 0 -10 5 -17 11 -17 5 0 7 6 4 13 -4 6 0 3 9 -7 8 -10 13 -23 9 -28 -3 -6
5 -5 17 2 15 8 20 8 16 1 -4 -7 1 -11 13 -11 12 0 21 -5 21 -11 0 -5 5 -7 10
-4 6 3 10 -2 11 -12 0 -11 3 -13 6 -5 4 10 8 9 18 -4 7 -10 23 -19 36 -21 13
-2 30 -11 38 -21 11 -14 13 -14 8 -1 -5 14 -2 15 19 5 13 -6 24 -15 24 -19 0
-5 4 -6 9 -2 5 3 17 -2 25 -11 12 -11 16 -12 16 -2 0 10 3 9 10 -2 6 -9 5 -17
-3 -23 -12 -9 3 -5 40 10 13 5 15 3 10 -12 -6 -15 -5 -16 8 -5 12 10 15 9 15
-6 0 -16 2 -17 10 -4 8 12 10 12 10 1 0 -8 7 -11 19 -8 11 3 29 -2 40 -10 12
-8 25 -11 31 -8 5 3 7 0 4 -8 -3 -8 2 -14 11 -14 8 0 15 4 15 9 0 4 5 8 10 8
6 0 10 -7 10 -16 0 -13 3 -14 15 -4 12 10 16 9 21 -4 4 -10 15 -14 36 -12 19
2 32 -2 35 -11 5 -12 7 -12 14 -2 6 10 13 8 28 -9 18 -21 20 -22 24 -5 4 16 5
16 6 -2 1 -17 3 -18 11 -5 8 12 10 12 10 1 0 -11 3 -11 15 -1 12 10 15 10 15
0 0 -8 3 -10 6 -7 4 3 16 1 28 -5 29 -17 47 -19 39 -5 -3 7 -3 9 2 5 4 -4 15
-2 24 5 14 10 14 10 3 -4 -10 -14 -10 -18 3 -23 11 -4 14 -2 9 6 -4 6 3 4 16
-5 17 -12 28 -13 42 -6 13 7 18 6 18 -2 0 -8 4 -8 15 1 10 9 15 9 15 1 0 -6 3
-10 8 -10 4 1 10 0 15 -1 4 -1 12 -4 17 -5 6 -1 12 -4 15 -5 14 -7 31 -5 37 5
5 6 8 4 8 -5 0 -13 1 -13 11 0 8 12 12 12 16 2 4 -10 8 -10 19 -1 11 9 14 9
14 0 0 -7 5 -9 10 -6 6 4 7 12 4 18 -4 7 3 2 15 -10 22 -23 37 -31 26 -14 -3
5 -1 12 5 16 5 3 10 -1 10 -10 0 -11 5 -15 15 -11 8 3 15 2 15 -2 0 -4 24 -7
54 -7 30 0 52 3 50 7 -2 4 0 10 6 13 6 4 10 3 9 -2 -3 -20 2 -25 16 -13 12 10
15 10 15 0 0 -10 3 -10 15 0 14 12 19 7 16 -13 -1 -5 3 -6 9 -2 6 3 8 10 5 15
-8 13 48 7 58 -5 5 -7 10 -7 15 0 7 10 62 15 62 6 0 -4 13 -6 29 -6 16 -1 27
3 25 7 -4 7 10 10 32 7 4 0 11 5 15 13 7 11 11 10 19 -2 9 -13 10 -13 10 0 0
13 1 13 10 0 9 -13 11 -13 21 0 8 11 12 12 16 3 2 -7 9 -13 14 -13 6 0 8 4 5
9 -8 12 27 8 36 -4 5 -6 8 -5 8 3 0 7 5 10 10 7 6 -3 10 -1 10 6 0 8 4 8 15
-1 13 -11 14 -10 9 4 -3 9 -2 16 4 16 6 0 12 -6 15 -12 3 -10 7 -10 19 0 13
10 17 10 21 0 4 -9 12 -6 28 12 l22 25 -8 -25 -7 -25 17 23 c13 18 20 21 31
11 11 -9 14 -9 14 1 0 10 3 10 15 0 11 -9 15 -9 15 -1 0 7 4 9 10 6 6 -3 7 1
4 9 -8 21 6 20 21 -1 9 -13 14 -13 20 -3 6 9 4 11 -5 5 -8 -5 -11 -4 -7 3 8
11 25 11 44 -1 9 -6 11 -3 7 8 -4 10 -2 15 7 13 8 -2 13 3 11 10 -1 8 2 11 8
7 5 -3 10 -14 10 -23 0 -14 2 -14 9 -3 5 7 14 10 20 7 6 -4 11 0 11 8 0 9 5
16 11 16 5 0 7 -6 3 -12 -6 -10 -5 -10 8 -1 8 7 19 9 23 5 5 -4 5 -1 1 6 -5 8
0 12 14 12 12 0 19 4 16 8 -3 5 1 9 9 9 8 0 11 -5 8 -11 -4 -6 1 -5 10 2 9 8
22 10 28 6 7 -4 9 -3 6 3 -4 6 0 14 9 17 8 3 13 2 10 -3 -4 -5 5 -4 18 2 13 7
23 14 21 18 -2 3 2 6 10 6 8 0 11 -5 8 -11 -4 -5 8 1 26 13 27 19 35 21 41 10
7 -11 10 -10 16 5 5 14 9 15 15 4 7 -10 9 -9 9 5 0 10 5 15 10 12 6 -3 10 -2
10 4 0 6 7 7 17 4 11 -4 14 -3 9 5 -4 7 -3 12 3 12 5 0 12 -6 15 -12 4 -7 4
-3 2 10 -2 12 0 19 6 16 5 -3 18 2 28 11 14 12 20 13 26 4 4 -7 3 -10 -4 -5
-6 3 -13 2 -16 -3 -4 -5 0 -8 6 -7 7 1 15 6 17 11 6 16 39 36 53 33 7 -2 12 3
10 11 -3 12 -1 12 14 0 15 -12 17 -12 9 0 -6 11 -3 13 14 8 18 -4 20 -3 11 8
-10 11 -8 13 9 10 18 -3 25 4 23 26 -1 3 10 5 24 3 13 -1 22 2 18 7 -3 5 3 9
13 9 15 0 16 2 3 10 -12 8 -9 10 13 10 19 0 26 4 21 12 -5 8 -2 9 9 5 16 -6
22 4 18 27 -1 5 5 3 14 -4 13 -11 14 -10 9 5 -5 13 -4 16 4 11 11 -7 17 6 13
28 -1 5 4 4 11 -1 9 -8 18 -8 30 1 10 7 15 16 11 19 -3 4 -1 7 5 7 7 0 11 6 9
13 -1 7 6 11 17 9 12 -2 16 1 10 9 -5 9 -2 10 9 6 12 -4 14 -2 10 10 -4 11 -2
14 5 9 8 -4 12 -1 12 10 0 10 3 15 6 11 7 -7 44 29 44 43 0 6 8 10 18 10 9 0
13 4 7 8 -5 4 -11 15 -11 25 -2 15 1 16 14 5 10 -8 13 -9 9 -1 -4 6 -1 14 5
16 10 4 9 6 -1 6 -9 1 -6 8 9 21 13 12 18 20 10 20 -16 0 -3 15 13 15 7 1 11
7 9 14 -2 8 9 11 34 9 37 -3 37 -3 37 -49 0 -26 -3 -51 -7 -57 -3 -6 1 -18 10
-26 11 -11 12 -16 3 -16 -7 0 -4 -7 7 -15 19 -15 19 -15 -1 -9 -19 5 -19 5 1
-8 12 -7 19 -19 16 -28 -5 -13 -3 -13 11 -1 11 9 17 10 17 2 0 -6 7 -11 16
-11 9 0 12 -5 8 -13 -5 -8 -2 -7 9 2 10 8 20 11 24 7 3 -3 0 -6 -8 -6 -10 -1
-9 -4 4 -11 9 -5 22 -7 28 -4 6 4 13 -3 16 -14 5 -18 8 -19 21 -9 13 11 14 11
8 0 -7 -11 -4 -12 13 -3 16 9 21 9 21 0 0 -8 4 -9 13 0 8 6 17 7 21 3 4 -4 14
2 22 13 13 17 16 18 24 5 8 -12 10 -10 10 10 0 18 3 21 9 12 6 -10 14 -5 30
22 24 38 39 50 21 17 -5 -11 -10 -26 -10 -33 0 -7 9 6 19 29 11 23 18 53 17
68 -3 20 0 25 12 20 12 -5 12 -1 -3 15 -14 15 -15 20 -4 20 11 0 11 2 -1 10
-11 7 -11 10 -2 10 7 0 10 5 7 10 -4 6 -12 8 -18 4 -7 -3 -3 2 7 10 19 15 19
16 0 38 -16 19 -16 20 -1 9 16 -13 17 -12 7 14 -9 24 -8 26 7 21 15 -6 15 -5
-2 14 -14 15 -15 20 -4 20 11 0 11 2 -1 10 -11 7 -11 10 -2 10 7 0 10 5 7 10
-4 6 -12 8 -18 4 -7 -3 -1 3 12 14 18 14 21 21 11 27 -9 6 -11 4 -5 -6 5 -8 4
-10 0 -6 -14 12 -15 37 -2 37 7 0 5 5 -3 10 -11 7 -11 10 -2 10 10 0 10 5 1
22 -10 18 -9 20 7 14 18 -6 18 -5 0 9 -11 8 -14 15 -8 15 9 0 10 5 3 19 -6 10
-7 21 -4 25 3 3 1 6 -6 6 -7 0 -9 5 -6 10 3 6 -2 10 -12 11 -10 0 -13 3 -6 6
10 3 10 7 0 18 -7 7 -16 10 -21 7 -5 -3 -15 3 -23 13 -9 13 -13 14 -13 5 0 -9
-5 -8 -16 6 -15 19 -16 19 -10 -1 6 -20 6 -20 -11 1 -19 21 -24 24 -49 24 -8
0 -12 5 -9 10 3 6 1 10 -4 10 -6 0 -11 -4 -11 -10 0 -5 -5 -10 -11 -10 -5 0
-7 5 -3 12 5 7 2 9 -9 5 -9 -3 -18 0 -21 9 -5 12 -10 13 -27 3 -12 -6 -19 -7
-16 -2 3 5 -3 14 -13 21 -12 7 -21 8 -25 2 -3 -6 -15 -1 -27 10 -16 15 -25 17
-41 9 -14 -8 -18 -8 -13 0 4 6 1 11 -6 11 -8 0 -22 18 -32 40 -15 34 -16 44
-5 69 7 16 17 27 21 25 4 -3 8 0 8 6 0 6 5 8 10 5 6 -4 17 -1 25 5 11 10 15
10 15 1 0 -7 5 -9 10 -6 6 4 8 10 5 15 -5 8 24 25 38 21 4 -1 17 5 29 13 11 8
27 12 36 9 10 -4 13 -2 8 5 -4 7 -1 12 9 12 9 0 14 4 11 9 -7 11 13 9 33 -3
10 -6 12 -5 7 3 -9 14 12 43 26 35 5 -3 16 0 25 8 12 9 15 9 9 1 -12 -21 1
-15 27 11 14 14 28 22 31 19 3 -4 6 -1 6 5 0 6 7 18 16 27 14 13 14 19 4 28
-10 9 -11 9 -5 -2 5 -10 4 -12 -4 -7 -15 10 -5 26 17 26 13 0 13 2 -4 15 -12
9 -14 14 -6 15 7 0 10 5 7 10 -4 6 -12 8 -18 4 -7 -3 -3 2 8 11 20 16 20 16 1
31 -17 12 -17 14 -3 14 14 0 15 4 6 27 -7 19 -6 28 2 33 8 6 8 9 0 14 -6 4
-11 12 -11 18 0 6 7 5 17 -3 15 -13 15 -12 3 8 -8 12 -18 19 -24 16 -6 -4 -7
1 -2 13 4 10 4 15 0 11 -9 -9 -35 13 -29 24 3 4 -4 6 -15 4 -11 -2 -20 2 -21
8 0 7 -4 3 -9 -8 l-9 -20 0 20 c-1 17 -3 17 -11 5 -8 -12 -10 -12 -11 5 0 11
-3 14 -6 7 -2 -6 -9 -10 -14 -6 -5 3 -9 0 -9 -7 0 -8 -5 -7 -17 2 -15 12 -16
12 -10 -3 4 -13 2 -15 -10 -11 -10 4 -14 2 -10 -4 5 -7 -4 -10 -22 -9 -22 2
-28 -2 -23 -14 5 -13 4 -13 -13 0 -10 8 -16 10 -12 3 5 -7 -4 -14 -23 -18 -19
-4 -28 -11 -23 -18 5 -8 2 -8 -8 0 -12 10 -18 10 -27 1 -7 -7 -12 -8 -12 -3 0
5 -11 -2 -24 -14 -18 -17 -26 -19 -31 -10 -6 8 -4 10 5 4 9 -5 11 -4 6 4 -6 9
-11 9 -22 0 -17 -14 -19 -23 -2 -13 7 4 8 3 4 -5 -5 -8 -12 -9 -19 -2 -13 10
-52 -11 -40 -22 3 -4 2 -7 -3 -8 -5 0 -19 -2 -31 -5 -13 -2 -23 1 -23 6 0 6
-5 10 -11 10 -5 0 -8 -4 -5 -8 3 -5 -1 -9 -9 -9 -8 0 -12 8 -9 20 3 19 3 19
-17 -1 -22 -24 -37 -30 -23 -9 5 7 -2 1 -15 -13 -13 -14 -20 -19 -17 -12 9 16
-6 16 -23 -1 -11 -10 -12 -9 -6 2 6 11 4 13 -8 8 -12 -4 -17 -1 -17 11 0 15
-2 15 -10 2 -7 -11 -10 -11 -10 -2 0 7 -4 10 -10 7 -9 -6 -14 8 -11 28 1 5 -3
6 -9 2 -5 -3 -10 -1 -10 4 0 6 -9 11 -19 11 -11 0 -22 9 -26 19 -4 13 -11 18
-22 14 -13 -5 -15 -2 -10 12 7 16 5 16 -10 4 -10 -7 -15 -9 -11 -5 4 5 2 16
-5 24 -10 13 -9 15 6 9 17 -6 17 -5 -2 21 -15 22 -17 29 -6 29 8 0 11 -5 8
-10 -3 -6 -1 -7 5 -4 5 4 9 18 8 31 -2 19 1 23 13 18 14 -5 14 -4 1 13 -9 11
-10 16 -2 11 8 -5 12 1 12 20 0 15 8 33 18 40 16 13 16 14 -3 8 -18 -5 -18 -4
-2 6 9 6 23 8 30 4 8 -5 7 -2 -2 9 -9 12 -10 17 -2 17 7 0 10 4 7 9 -9 15 5
42 18 34 6 -4 5 1 -3 11 -11 13 -11 16 -2 14 8 -2 15 4 16 13 2 9 6 27 10 39
5 16 4 20 -5 15 -8 -5 -8 -1 1 13 7 12 17 18 22 15 5 -3 4 4 -2 16 -8 14 -8
21 -1 21 7 0 7 7 -1 23 -11 20 -11 21 4 9 14 -12 16 -11 12 7 -2 12 0 21 4 21
4 0 6 19 6 43 -2 51 3 69 19 60 6 -4 5 1 -3 10 -10 13 -10 17 -1 17 9 0 9 4
-1 17 -12 15 -12 16 6 10 20 -7 20 -7 1 8 -11 8 -14 15 -7 15 7 0 9 5 6 10 -4
6 -12 8 -18 4 -7 -3 -5 0 4 8 11 9 13 22 8 46 -4 21 -3 32 5 32 7 0 7 3 1 8
-11 8 -16 42 -6 42 3 0 6 15 6 34 0 19 -2 34 -5 34 -18 -1 -21 4 -9 19 8 10 9
14 2 10 -8 -5 -11 1 -9 20 1 16 -2 34 -8 42 -8 11 -8 13 2 7 6 -4 12 -2 12 3
0 6 -6 11 -12 11 -9 0 -8 4 2 10 11 7 11 10 2 10 -10 0 -10 5 -2 20 6 11 7 20
3 19 -19 -3 -33 2 -33 11 0 6 8 10 17 10 15 0 14 2 -3 15 -11 8 -14 14 -6 15
10 0 10 5 2 20 -6 11 -8 26 -4 32 4 7 3 8 -4 4 -8 -5 -12 3 -12 23 0 18 -5 31
-12 31 -8 0 -9 3 -3 8 6 4 11 13 13 21 3 12 0 12 -12 2 -12 -10 -14 -9 -9 11
4 19 3 20 -7 8 -10 -12 -11 -11 -7 8 3 12 1 22 -5 22 -5 0 -6 4 -3 10 3 6 0
10 -7 10 -9 0 -9 3 2 10 10 6 11 10 2 10 -6 0 -11 3 -11 8 4 21 -2 42 -10 38
-5 -3 -8 7 -7 23 1 22 -2 27 -13 23 -9 -3 -12 -1 -7 6 4 7 0 15 -9 18 -13 5
-13 9 -3 22 10 12 10 14 1 8 -12 -6 -15 3 -12 30 0 3 -7 11 -17 18 -11 8 -14
18 -9 26 5 9 4 11 -3 6 -11 -6 -17 12 -13 37 0 4 -4 7 -9 7 -6 0 -15 11 -22
25 -6 13 -15 22 -19 19 -5 -3 -10 0 -10 5 -1 6 -2 16 -3 21 -2 20 -57 80 -72
80 -10 0 -14 6 -10 15 3 8 0 14 -7 12 -7 -1 -11 4 -9 12 3 12 0 12 -12 2 -11
-9 -16 -9 -22 0 -4 8 -3 9 4 5 7 -4 12 -2 12 3 0 10 -12 14 -26 9 -3 -2 -14
13 -24 32 -10 19 -22 35 -27 35 -4 0 -6 4 -5 10 2 5 0 7 -4 2 -4 -4 -8 -16 -9
-26 -1 -14 4 -18 18 -15 16 3 17 1 5 -13 -9 -12 -9 -15 0 -9 11 6 17 -5 13
-26 0 -5 4 -8 10 -8 5 0 7 -4 4 -10 -3 -5 -1 -10 5 -10 6 0 8 -4 5 -10 -3 -5
-1 -10 4 -10 6 0 11 -8 11 -18 0 -10 8 -28 17 -42 16 -22 16 -23 -3 -17 -19 7
-19 7 0 -8 11 -8 15 -15 8 -15 -8 0 -9 -7 -1 -27 13 -35 13 -34 -3 -44 -10 -7
-10 -9 2 -9 13 0 13 -1 0 -10 -12 -8 -12 -10 5 -10 17 0 17 -2 5 -10 -8 -5
-10 -10 -4 -10 7 0 14 -9 17 -20 4 -14 0 -20 -11 -20 -13 0 -12 -3 4 -15 15
-11 16 -15 4 -15 -10 -1 -9 -4 5 -10 18 -8 18 -9 2 -9 -15 -1 -16 -4 -6 -22 7
-15 8 -24 0 -32 -6 -6 -7 -16 0 -28 7 -14 6 -17 -8 -14 -14 2 -18 -4 -18 -26
0 -16 5 -29 10 -29 6 0 3 -5 -5 -10 -10 -6 -11 -10 -2 -10 19 0 14 -20 -5 -20
-10 0 -14 -4 -8 -8 14 -10 18 -35 4 -26 -8 5 -10 -3 -7 -25 3 -18 1 -34 -4
-37 -5 -3 -5 -10 -2 -16 4 -7 2 -8 -4 -4 -8 4 -12 0 -12 -11 0 -11 -5 -24 -11
-30 -8 -8 -8 -17 1 -32 6 -12 7 -21 3 -20 -17 3 -33 -1 -32 -8 3 -21 -3 -24
-18 -12 -15 12 -16 12 -10 -3 4 -12 2 -15 -8 -12 -8 3 -11 13 -8 21 5 12 3 14
-7 8 -10 -6 -12 -3 -8 13 4 12 2 20 -3 16 -5 -3 -9 0 -9 6 0 6 -4 8 -10 5 -6
-3 -7 1 -4 10 4 8 1 22 -5 29 -8 10 -9 16 -1 21 6 3 8 11 4 16 -3 5 -11 6 -17
2 -8 -5 -8 -2 1 9 14 18 5 51 -12 41 -6 -3 -8 -3 -4 2 4 4 3 14 -3 22 -9 10
-8 13 2 13 11 0 11 2 -1 10 -13 9 -13 10 0 10 11 1 10 4 -4 15 -17 13 -17 15
-4 15 9 0 20 5 24 12 4 7 3 8 -4 4 -7 -4 -12 -1 -12 8 0 9 -6 16 -12 16 -9 0
-8 4 2 10 14 9 7 14 -13 11 -4 -1 -3 8 3 18 8 16 6 24 -12 42 -13 12 -17 19
-11 15 9 -5 11 -2 7 8 -3 9 -14 16 -23 16 -13 0 -13 2 -2 9 11 7 10 10 -5 14
-18 4 -18 5 1 6 18 1 17 3 -5 14 -14 7 -26 18 -26 25 -1 7 -3 15 -4 20 -1 4
-2 10 -1 14 0 4 -6 5 -14 2 -11 -5 -13 -2 -9 9 8 23 -6 43 -18 26 -5 -9 -6 -4
-2 14 4 17 2 27 -6 27 -6 0 -10 8 -8 18 1 9 -1 23 -5 30 -5 7 -3 12 7 12 8 0
18 5 22 12 4 7 3 8 -4 4 -7 -4 -12 -2 -12 3 0 6 6 11 13 11 8 0 7 4 -3 10 -14
9 -6 15 15 10 6 -1 7 2 3 6 -4 4 -2 14 5 22 8 11 8 14 0 9 -6 -4 -14 -3 -18 3
-3 5 0 10 8 10 10 0 13 7 10 20 -3 11 1 28 8 37 10 12 10 14 2 9 -7 -4 -13 -2
-13 3 0 6 5 11 10 11 6 0 10 8 8 18 -2 11 2 16 12 14 11 -3 10 2 -4 17 -14 16
-16 21 -5 21 11 0 11 2 -1 10 -8 5 -10 10 -4 10 6 0 10 13 9 30 -1 21 2 27 9
20 8 -6 12 -3 12 10 0 10 -3 17 -6 15 -4 -2 -7 2 -7 9 0 8 6 12 14 9 7 -3 13
-2 13 1 0 4 -10 11 -22 16 -18 7 -19 9 -5 9 15 1 16 4 6 23 -10 18 -9 20 5 15
9 -4 16 -4 16 -1 0 2 -10 9 -22 14 -14 5 -17 9 -8 9 13 1 15 10 10 49 -4 30
-10 46 -18 44 -10 -2 -10 2 -1 19 10 19 9 21 -7 15 -18 -6 -18 -5 0 9 11 8 14
15 8 15 -7 0 -12 5 -12 11 0 5 4 7 10 4 6 -3 7 1 4 9 -3 9 -14 16 -23 16 -14
0 -14 2 -1 10 10 6 11 10 3 10 -7 0 -13 4 -13 10 0 5 8 6 17 3 15 -6 16 -5 3
9 -8 9 -19 13 -24 10 -5 -3 -7 2 -3 11 3 10 2 17 -4 17 -6 0 -7 5 -4 10 3 6 1
10 -5 10 -6 0 -9 4 -5 9 3 5 -2 16 -10 24 -20 20 -19 28 3 21 9 -3 6 2 -8 10
-14 8 -20 15 -13 16 7 0 10 7 6 18 -8 22 -39 53 -46 45 -3 -3 -3 5 0 18 4 15
3 20 -5 15 -7 -4 -12 -1 -12 9 0 10 -5 13 -12 9 -10 -6 -10 -5 -2 7 9 11 9 17
-1 26 -11 10 -15 10 -18 0 -4 -9 -6 -9 -6 1 -2 26 -18 11 -19 -18 0 -16 4 -30
10 -30 6 0 8 -3 5 -7 -4 -3 1 -15 10 -25 15 -17 15 -18 1 -13 -13 5 -15 2 -11
-14 3 -12 10 -21 15 -21 6 0 8 -9 5 -20 -3 -10 0 -21 6 -23 14 -4 17 -47 3
-48 -6 0 -2 -4 9 -9 12 -5 14 -9 6 -9 -11 -1 -10 -5 5 -16 18 -14 18 -15 0 -8
-16 5 -17 3 -8 -12 8 -15 6 -22 -6 -32 -16 -12 -16 -13 -1 -7 10 3 20 0 25 -7
4 -7 3 -10 -3 -6 -6 4 -13 -4 -16 -18 -2 -14 0 -28 5 -31 6 -4 5 -10 -3 -14
-10 -7 -10 -12 -1 -23 10 -11 9 -17 -5 -28 -17 -13 -17 -13 -3 6 14 18 14 19
-2 6 -13 -10 -15 -18 -8 -31 7 -13 7 -21 0 -25 -6 -4 -7 -12 -3 -18 5 -8 2 -8
-9 1 -13 10 -15 9 -10 -13 3 -17 -1 -27 -12 -31 -11 -4 -13 -10 -7 -18 9 -10
-13 -55 -24 -48 -14 7 -16 0 -5 -13 7 -9 10 -18 6 -22 -3 -3 -6 -1 -6 5 0 7
-5 12 -10 12 -6 0 -9 -6 -8 -12 2 -7 -3 -12 -11 -10 -12 3 -12 0 -1 -13 11
-13 10 -15 -4 -9 -11 4 -16 1 -16 -11 0 -9 -4 -13 -10 -10 -9 5 -15 -16 -11
-38 1 -5 -3 -6 -9 -2 -6 3 -8 12 -4 18 3 7 -1 4 -10 -7 -8 -10 -20 -15 -27
-10 -7 4 -10 3 -6 -2 9 -15 -8 -35 -31 -37 -12 -1 -22 -5 -22 -10 0 -4 -5 -5
-12 -1 -8 5 -9 2 -4 -11 6 -16 4 -16 -11 -4 -10 8 -21 19 -25 24 -5 6 -8 4 -8
-4 0 -8 -3 -11 -6 -8 -4 4 -1 14 7 24 12 14 12 16 0 8 -11 -6 -13 -2 -8 24 4
18 3 30 -1 27 -4 -2 -8 4 -8 14 0 10 5 16 10 13 5 -4 7 1 3 11 -5 11 -3 15 5
10 7 -5 9 1 6 20 -3 14 -1 26 5 26 5 0 4 6 -2 14 -8 10 -9 16 -1 21 6 3 7 11
4 17 -5 7 -2 8 6 3 10 -6 12 0 8 23 -2 17 -1 29 4 26 11 -7 10 3 -3 28 -6 12
-7 18 -1 14 5 -3 13 1 16 10 10 25 7 36 -6 29 -7 -4 -6 -1 3 7 11 9 13 22 8
46 -6 28 -4 32 10 28 12 -4 11 -2 -3 9 -11 8 -14 15 -7 15 7 0 9 5 6 10 -4 6
-12 8 -18 4 -7 -3 -5 0 4 8 11 9 13 22 8 46 -4 21 -3 32 5 32 6 0 4 5 -4 10
-12 8 -12 10 5 10 16 0 17 2 5 9 -8 6 -19 7 -25 5 -5 -3 -3 0 6 8 11 9 13 22
8 46 -6 28 -4 32 10 28 12 -4 11 -2 -3 9 -11 8 -14 15 -7 15 7 0 9 5 6 10 -4
6 -12 8 -18 4 -7 -3 -5 0 3 8 20 18 14 68 -8 68 -13 0 -14 2 -3 9 11 7 11 9 0
14 -9 3 -9 6 -2 6 8 1 9 10 3 31 -5 19 -5 28 1 25 14 -9 11 8 -8 34 -12 18
-13 22 -2 16 11 -7 12 -6 3 6 -19 23 -21 53 -4 67 13 12 13 13 -3 8 -13 -4
-17 -1 -15 12 2 9 -2 16 -8 15 -7 -1 -9 8 -6 22 3 17 0 25 -9 25 -11 0 -11 2
1 10 12 8 12 10 1 10 -8 0 -11 7 -8 20 3 11 0 23 -5 27 -7 4 -8 1 -3 -7 5 -9
4 -11 -4 -6 -9 6 -9 11 0 22 6 8 7 14 2 14 -9 0 -11 6 -15 49 -1 11 -6 18 -9
15 -4 -2 -10 0 -13 5 -3 5 1 12 10 15 17 6 10 26 -9 26 -7 0 -6 -4 3 -11 10
-7 11 -9 2 -7 -8 2 -12 6 -10 10 2 3 -6 16 -17 29 -15 18 -15 20 -2 10 25 -19
21 -6 -5 20 -13 12 -16 19 -8 15 9 -5 9 -2 -2 7 -10 8 -14 17 -10 21 4 4 -2
14 -12 22 -20 14 -20 14 0 15 10 0 13 3 6 6 -6 2 -10 9 -7 14 4 5 -1 6 -11 2
-14 -5 -15 -3 -4 17 7 12 8 20 2 16 -11 -7 -25 21 -17 35 4 5 -1 6 -10 3 -9
-4 -15 -3 -14 2 4 13 -24 68 -38 77 -7 4 -13 17 -13 27 0 11 -5 20 -11 20 -5
0 -7 5 -4 10 3 6 0 10 -8 10 -11 0 -13 7 -9 22 3 14 2 19 -6 14 -11 -7 -17 6
-13 27 1 5 -3 6 -8 3 -9 -6 -27 31 -23 46 1 4 -5 5 -13 2 -10 -4 -15 0 -15 16
0 13 -4 19 -12 14 -7 -5 -9 0 -6 14 4 16 2 19 -10 15 -12 -5 -14 -2 -9 12 6
15 5 16 -8 5 -9 -7 -15 -9 -13 -4 1 5 -12 24 -30 42 -29 29 -34 38 -31 58 1
11 -44 43 -53 38 -6 -4 -7 2 -3 15 5 16 3 20 -9 15 -10 -4 -16 -1 -16 8 0 19
-44 42 -64 35 -9 -4 -15 -3 -15 1 4 21 -2 42 -12 42 -15 0 -39 26 -32 34 4 3
4 6 1 6 -2 0 -8 -3 -11 -6z m114 -101 c13 -16 12 -17 -3 -4 -10 7 -18 15 -18
17 0 8 8 3 21 -13z m-4 -319 c-3 -3 -12 -4 -19 -1 -8 3 -5 6 6 6 11 1 17 -2
13 -5z m953 -1038 c0 -3 -4 -8 -10 -11 -5 -3 -10 -1 -10 4 0 6 5 11 10 11 6 0
10 -2 10 -4z m-1290 -190 c0 -2 -7 -7 -16 -10 -8 -3 -12 -2 -9 4 6 10 25 14
25 6z m1770 -656 c30 -43 18 -37 -16 7 -15 20 -23 33 -16 29 6 -3 21 -20 32
-36z m65 -100 c3 -5 1 -10 -4 -10 -6 0 -11 5 -11 10 0 6 2 10 4 10 3 0 8 -4
11 -10z m-587 -233 c-9 -19 -9 -20 3 -10 11 9 14 7 14 -13 0 -13 -3 -24 -6
-24 -4 0 -10 -7 -13 -16 -5 -14 -4 -15 9 -4 13 11 14 10 9 -4 -3 -9 -11 -16
-16 -16 -6 0 -7 -7 -4 -16 3 -8 2 -12 -4 -9 -9 6 -14 -8 -11 -28 1 -4 -7 -3
-18 2 -10 6 -21 7 -25 4 -3 -3 -6 0 -7 8 -1 8 -2 23 -3 34 -1 14 -7 19 -21 18
-17 -1 -18 0 -5 10 8 7 17 21 18 32 2 11 8 22 13 23 5 2 9 11 9 20 0 10 3 13
8 7 8 -11 42 -16 40 -6 -2 16 3 22 12 16 7 -4 6 -14 -2 -28z m252 -187 c0 -5
-5 -10 -11 -10 -5 0 -7 5 -4 10 3 6 8 10 11 10 2 0 4 -4 4 -10z m-2520 -40 c0
-5 -5 -10 -11 -10 -5 0 -7 5 -4 10 3 6 8 10 11 10 2 0 4 -4 4 -10z m120 -1000
c0 -5 -5 -10 -11 -10 -5 0 -7 5 -4 10 3 6 8 10 11 10 2 0 4 -4 4 -10z m-676
-526 c3 -8 2 -12 -4 -9 -6 3 -10 10 -10 16 0 14 7 11 14 -7z m4016 -275 c0 -6
-4 -7 -10 -4 -5 3 -10 11 -10 16 0 6 5 7 10 4 6 -3 10 -11 10 -16z m-3825
-608 c3 -5 2 -12 -3 -15 -5 -3 -9 1 -9 9 0 17 3 19 12 6z"/>
<path d="M3176 5507 c3 -10 9 -15 12 -12 3 3 0 11 -7 18 -10 9 -11 8 -5 -6z"/>
<path d="M3055 5060 c-3 -5 -2 -10 4 -10 5 0 13 5 16 10 3 6 2 10 -4 10 -5 0
-13 -4 -16 -10z"/>
<path d="M5106 2252 c-3 -5 1 -9 9 -9 8 0 12 4 9 9 -3 4 -7 8 -9 8 -2 0 -6 -4
-9 -8z"/>
<path d="M2396 602 c-3 -4 4 -9 15 -9 23 -2 25 3 4 10 -8 4 -16 3 -19 -1z"/>
<path d="M2595 540 c-3 -5 -1 -10 4 -10 6 0 11 5 11 10 0 6 -2 10 -4 10 -3 0
-8 -4 -11 -10z"/>
</g>
</svg>
