<svg width="13" height="16" viewBox="0 0 13 16" xmlns="http://www.w3.org/2000/svg">
<path d="M1.23642 4.59273C1.11272 4.59273 1.01868 4.70389 1.03918 4.82588L2.875 15.7498H10.375L12.2108 4.82588C12.2313 4.70389 12.1373 4.59273 12.0136 4.59273H1.23642ZM12.675 1.98943C12.7855 1.98943 12.875 2.07897 12.875 2.18943V3.02909C12.875 3.13955 12.7855 3.22909 12.675 3.22909H0.575C0.464543 3.22909 0.375 3.13955 0.375 3.02909V2.18943C0.375 2.07897 0.464543 1.98943 0.575 1.98943H3.94438C4.50688 1.98943 4.96375 1.30823 4.96375 0.749756H8.28625C8.28625 1.30823 8.7425 1.98943 9.30562 1.98943H12.675Z"/>
</svg>
