<svg xmlns="http://www.w3.org/2000/svg" width="22" height="21" viewBox="0 0 22 21" fill="none">
  <g clip-path="url(#clip0_448_2334)">
    <mask id="mask0_448_2334" style="mask-type:luminance" maskUnits="userSpaceOnUse" x="2" y="-1" width="21" height="21">
      <path d="M23 -1H2V20H23V-1Z" fill="white"/>
    </mask>
    <g mask="url(#mask0_448_2334)">
      <path d="M8.895 1.96619L7.775 0.627441L3.75 3.99619L4.8788 5.33494L8.895 1.96619ZM21.25 4.00494L17.225 0.627441L16.0963 1.96619L20.1212 5.34369L21.25 4.00494ZM12.5 2.49994C8.1512 2.49994 4.625 6.02619 4.625 10.3749C4.625 14.7237 8.1425 18.2499 12.5 18.2499C16.8487 18.2499 20.375 14.7237 20.375 10.3749C20.375 6.02619 16.8487 2.49994 12.5 2.49994ZM12.5 16.4999C9.1137 16.4999 6.375 13.7612 6.375 10.3749C6.375 6.98869 9.1137 4.24994 12.5 4.24994C15.8862 4.24994 18.625 6.98869 18.625 10.3749C18.625 13.7612 15.8862 16.4999 12.5 16.4999ZM13.375 6.87494H11.625V9.4999H9V11.2499H11.625V13.8749H13.375V11.2499H16V9.4999H13.375V6.87494Z" fill="#E4E9FF"/>
    </g>
    <mask id="mask1_448_2334" style="mask-type:alpha" maskUnits="userSpaceOnUse" x="0" y="2" width="20" height="20">
      <mask id="mask2_448_2334" style="mask-type:luminance" maskUnits="userSpaceOnUse" x="-7" y="-3" width="32" height="32">
        <path d="M24.113 12.5563L8.55664 -3L-6.99971 12.5563L8.55664 28.1127L24.113 12.5563Z" fill="white"/>
      </mask>
      <g mask="url(#mask2_448_2334)">
        <mask id="mask3_448_2334" style="mask-type:luminance" maskUnits="userSpaceOnUse" x="-6" y="-3" width="31" height="31">
          <path d="M24.1125 12.5564L9.26333 -2.29285L-5.58594 12.5564L9.26333 27.4056L24.1125 12.5564Z" fill="white"/>
        </mask>
        <g mask="url(#mask3_448_2334)">
          <path d="M12.0414 4.68006L12.1961 2.94146L6.96788 2.47742L6.81938 4.22221L12.0414 4.68006ZM19.3361 14.858L18.8782 9.62362L17.1335 9.77212L17.5913 15.0064L19.3361 14.858ZM14.2131 7.60662C11.1381 4.53157 6.15118 4.53157 3.07618 7.60652C0.00112009 10.6816 -0.00502992 15.6623 3.07618 18.7435C6.15118 21.8185 11.1381 21.8185 14.2131 18.7435C17.2881 15.6685 17.2881 10.6816 14.2131 7.60662ZM4.31358 17.506C1.91919 15.1116 1.91915 11.2385 4.31358 8.84402C6.70808 6.44959 10.5812 6.4496 12.9757 8.84402C15.3701 11.2384 15.3701 15.1116 12.9757 17.506C10.5812 19.9005 6.70808 19.9005 4.31358 17.506ZM11.7382 11.3189L10.5008 10.0815L8.64468 11.9376L6.78848 10.0814L5.55108 11.3189L7.40718 13.175L5.55108 15.0312L6.78848 16.2686L8.64468 14.4125L10.5008 16.2686L11.7383 15.0312L9.88208 13.175L11.7382 11.3189Z" fill="#8E8EA9"/>
        </g>
      </g>
    </mask>
    <g mask="url(#mask1_448_2334)">
      <path d="M0.777717 10.4351L4.9994 15L7.8488 24.5772L-2.75781 13.9706L0.777717 10.4351Z" fill="#E4E9FF"/>
    </g>
  </g>
  <defs>
    <clipPath id="clip0_448_2334">
      <rect width="22" height="21" fill="white"/>
    </clipPath>
  </defs>
</svg>