<svg width="32" height="32" viewBox="0 0 32 32" fill="none" xmlns="http://www.w3.org/2000/svg">
<g clip-path="url(#clip0_67_1066)">
<path d="M17.3335 4C10.7068 4 5.3335 9.37333 5.3335 16H1.3335L6.52016 21.1867L6.6135 21.3733L12.0002 16H8.00016C8.00016 10.84 12.1735 6.66667 17.3335 6.66667C22.4935 6.66667 26.6668 10.84 26.6668 16C26.6668 21.16 22.4935 25.3333 17.3335 25.3333C14.7602 25.3333 12.4268 24.28 10.7468 22.5867L8.8535 24.48C11.0268 26.6533 14.0135 28 17.3335 28C23.9602 28 29.3335 22.6267 29.3335 16C29.3335 9.37333 23.9602 4 17.3335 4ZM16.0002 10.6667V17.3333L21.6668 20.6933L22.6935 18.9867L18.0002 16.2V10.6667H16.0002Z" fill="#E4E9FF"/>
</g>
<defs>
<clipPath id="clip0_67_1066">
<rect width="32" height="32" fill="white"/>
</clipPath>
</defs>
</svg>
