<svg width="32" height="32" viewBox="0 0 32 32" fill="none" xmlns="http://www.w3.org/2000/svg">
<g clip-path="url(#clip0_67_1057)">
<path d="M14.6665 9.33341H17.3332V12.0001H14.6665V9.33341ZM14.6665 14.6667H17.3332V22.6667H14.6665V14.6667ZM15.9998 2.66675C8.63984 2.66675 2.6665 8.64008 2.6665 16.0001C2.6665 23.3601 8.63984 29.3334 15.9998 29.3334C23.3598 29.3334 29.3332 23.3601 29.3332 16.0001C29.3332 8.64008 23.3598 2.66675 15.9998 2.66675ZM15.9998 26.6667C10.1198 26.6667 5.33317 21.8801 5.33317 16.0001C5.33317 10.1201 10.1198 5.33341 15.9998 5.33341C21.8798 5.33341 26.6665 10.1201 26.6665 16.0001C26.6665 21.8801 21.8798 26.6667 15.9998 26.6667Z" fill="#E4E9FF"/>
</g>
<defs>
<clipPath id="clip0_67_1057">
<rect width="32" height="32" fill="white"/>
</clipPath>
</defs>
</svg>
