<svg width="27" height="28" viewBox="0 0 27 28" fill="none" xmlns="http://www.w3.org/2000/svg">
<mask id="path-1-inside-1_106_395" fill="white">
<path d="M22.9457 15.3067C22.999 14.8801 23.0391 14.4534 23.0391 14.0001C23.0391 13.5467 22.999 13.1201 22.9457 12.6934L25.7612 10.4934C26.0148 10.2934 26.0815 9.93341 25.9213 9.64008L23.2526 5.02675C23.1325 4.81341 22.9056 4.69341 22.6654 4.69341C22.5854 4.69341 22.5053 4.70675 22.4386 4.73342L19.1159 6.06675C18.4221 5.53342 17.6748 5.09342 16.8608 4.76008L16.3537 1.22675C16.3137 0.906748 16.0335 0.666748 15.6999 0.666748H10.3623C10.0287 0.666748 9.74849 0.906748 9.70846 1.22675L9.20139 4.76008C8.38741 5.09342 7.64015 5.54675 6.94627 6.06675L3.62362 4.73342C3.54356 4.70675 3.4635 4.69341 3.38343 4.69341C3.15659 4.69341 2.92974 4.81341 2.80964 5.02675L0.140855 9.64008C-0.0326158 9.93341 0.0474481 10.2934 0.300983 10.4934L3.11655 12.6934C3.06318 13.1201 3.02315 13.5601 3.02315 14.0001C3.02315 14.4401 3.06318 14.8801 3.11655 15.3067L0.300983 17.5067C0.0474481 17.7067 -0.0192718 18.0667 0.140855 18.3601L2.80964 22.9734C2.92974 23.1867 3.15659 23.3067 3.39678 23.3067C3.47684 23.3067 3.5569 23.2934 3.62362 23.2667L6.94627 21.9334C7.64015 22.4667 8.38741 22.9067 9.20139 23.2401L9.70846 26.7734C9.74849 27.0934 10.0287 27.3334 10.3623 27.3334H15.6999C16.0335 27.3334 16.3137 27.0934 16.3537 26.7734L16.8608 23.2401C17.6748 22.9067 18.4221 22.4534 19.1159 21.9334L22.4386 23.2667C22.5186 23.2934 22.5987 23.3067 22.6788 23.3067C22.9056 23.3067 23.1325 23.1867 23.2526 22.9734L25.9213 18.3601C26.0815 18.0667 26.0148 17.7067 25.7612 17.5067L22.9457 15.3067V15.3067ZM20.3036 13.0267C20.3569 13.4401 20.3703 13.7201 20.3703 14.0001C20.3703 14.2801 20.3436 14.5734 20.3036 14.9734L20.1167 16.4801L21.3043 17.4134L22.7455 18.5334L21.8114 20.1467L20.1167 19.4667L18.729 18.9067L17.528 19.8134C16.9542 20.2401 16.4071 20.5601 15.86 20.7867L14.4456 21.3601L14.2321 22.8667L13.9652 24.6667H12.097L11.8435 22.8667L11.63 21.3601L10.2155 20.7867C9.64174 20.5467 9.10798 20.2401 8.57423 19.8401L7.35993 18.9067L5.94547 19.4801L4.25079 20.1601L3.31671 18.5467L4.75786 17.4267L5.94547 16.4934L5.75865 14.9867C5.71862 14.5734 5.69193 14.2667 5.69193 14.0001C5.69193 13.7334 5.71862 13.4267 5.75865 13.0267L5.94547 11.5201L4.75786 10.5867L3.31671 9.46675L4.25079 7.85341L5.94547 8.53342L7.33324 9.09341L8.53419 8.18675C9.10798 7.76008 9.65509 7.44008 10.2022 7.21341L11.6166 6.64008L11.8301 5.13341L12.097 3.33341H13.9518L14.2054 5.13341L14.4189 6.64008L15.8333 7.21341C16.4071 7.45341 16.9409 7.76008 17.4746 8.16008L18.6889 9.09341L20.1034 8.52008L21.7981 7.84008L22.7321 9.45342L21.3043 10.5867L20.1167 11.5201L20.3036 13.0267ZM13.0311 8.66675C10.0821 8.66675 7.69353 11.0534 7.69353 14.0001C7.69353 16.9467 10.0821 19.3334 13.0311 19.3334C15.9801 19.3334 18.3687 16.9467 18.3687 14.0001C18.3687 11.0534 15.9801 8.66675 13.0311 8.66675ZM13.0311 16.6667C11.5633 16.6667 10.3623 15.4667 10.3623 14.0001C10.3623 12.5334 11.5633 11.3334 13.0311 11.3334C14.4989 11.3334 15.6999 12.5334 15.6999 14.0001C15.6999 15.4667 14.4989 16.6667 13.0311 16.6667Z"/>
</mask>
<path d="M22.9457 15.3067C22.999 14.8801 23.0391 14.4534 23.0391 14.0001C23.0391 13.5467 22.999 13.1201 22.9457 12.6934L25.7612 10.4934C26.0148 10.2934 26.0815 9.93341 25.9213 9.64008L23.2526 5.02675C23.1325 4.81341 22.9056 4.69341 22.6654 4.69341C22.5854 4.69341 22.5053 4.70675 22.4386 4.73342L19.1159 6.06675C18.4221 5.53342 17.6748 5.09342 16.8608 4.76008L16.3537 1.22675C16.3137 0.906748 16.0335 0.666748 15.6999 0.666748H10.3623C10.0287 0.666748 9.74849 0.906748 9.70846 1.22675L9.20139 4.76008C8.38741 5.09342 7.64015 5.54675 6.94627 6.06675L3.62362 4.73342C3.54356 4.70675 3.4635 4.69341 3.38343 4.69341C3.15659 4.69341 2.92974 4.81341 2.80964 5.02675L0.140855 9.64008C-0.0326158 9.93341 0.0474481 10.2934 0.300983 10.4934L3.11655 12.6934C3.06318 13.1201 3.02315 13.5601 3.02315 14.0001C3.02315 14.4401 3.06318 14.8801 3.11655 15.3067L0.300983 17.5067C0.0474481 17.7067 -0.0192718 18.0667 0.140855 18.3601L2.80964 22.9734C2.92974 23.1867 3.15659 23.3067 3.39678 23.3067C3.47684 23.3067 3.5569 23.2934 3.62362 23.2667L6.94627 21.9334C7.64015 22.4667 8.38741 22.9067 9.20139 23.2401L9.70846 26.7734C9.74849 27.0934 10.0287 27.3334 10.3623 27.3334H15.6999C16.0335 27.3334 16.3137 27.0934 16.3537 26.7734L16.8608 23.2401C17.6748 22.9067 18.4221 22.4534 19.1159 21.9334L22.4386 23.2667C22.5186 23.2934 22.5987 23.3067 22.6788 23.3067C22.9056 23.3067 23.1325 23.1867 23.2526 22.9734L25.9213 18.3601C26.0815 18.0667 26.0148 17.7067 25.7612 17.5067L22.9457 15.3067V15.3067ZM20.3036 13.0267C20.3569 13.4401 20.3703 13.7201 20.3703 14.0001C20.3703 14.2801 20.3436 14.5734 20.3036 14.9734L20.1167 16.4801L21.3043 17.4134L22.7455 18.5334L21.8114 20.1467L20.1167 19.4667L18.729 18.9067L17.528 19.8134C16.9542 20.2401 16.4071 20.5601 15.86 20.7867L14.4456 21.3601L14.2321 22.8667L13.9652 24.6667H12.097L11.8435 22.8667L11.63 21.3601L10.2155 20.7867C9.64174 20.5467 9.10798 20.2401 8.57423 19.8401L7.35993 18.9067L5.94547 19.4801L4.25079 20.1601L3.31671 18.5467L4.75786 17.4267L5.94547 16.4934L5.75865 14.9867C5.71862 14.5734 5.69193 14.2667 5.69193 14.0001C5.69193 13.7334 5.71862 13.4267 5.75865 13.0267L5.94547 11.5201L4.75786 10.5867L3.31671 9.46675L4.25079 7.85341L5.94547 8.53342L7.33324 9.09341L8.53419 8.18675C9.10798 7.76008 9.65509 7.44008 10.2022 7.21341L11.6166 6.64008L11.8301 5.13341L12.097 3.33341H13.9518L14.2054 5.13341L14.4189 6.64008L15.8333 7.21341C16.4071 7.45341 16.9409 7.76008 17.4746 8.16008L18.6889 9.09341L20.1034 8.52008L21.7981 7.84008L22.7321 9.45342L21.3043 10.5867L20.1167 11.5201L20.3036 13.0267ZM13.0311 8.66675C10.0821 8.66675 7.69353 11.0534 7.69353 14.0001C7.69353 16.9467 10.0821 19.3334 13.0311 19.3334C15.9801 19.3334 18.3687 16.9467 18.3687 14.0001C18.3687 11.0534 15.9801 8.66675 13.0311 8.66675ZM13.0311 16.6667C11.5633 16.6667 10.3623 15.4667 10.3623 14.0001C10.3623 12.5334 11.5633 11.3334 13.0311 11.3334C14.4989 11.3334 15.6999 12.5334 15.6999 14.0001C15.6999 15.4667 14.4989 16.6667 13.0311 16.6667Z" fill="#E4E9FF" stroke="black" stroke-width="0.4" mask="url(#path-1-inside-1_106_395)"/>
</svg>
